<?xml version="1.0" encoding="utf-8"?>
<!-- Generator: Adobe Illustrator 25.2.1, SVG Export Plug-In . SVG Version: 6.00 Build 0)  -->
<svg version="1.1" id="Camada_1" xmlns="http://www.w3.org/2000/svg" xmlns:xlink="http://www.w3.org/1999/xlink" x="0px" y="0px"
	 viewBox="0 0 2000 2000" style="enable-background:new 0 0 2000 2000;" xml:space="preserve">
<style type="text/css">
	.st0{fill:#9093A3;}
	.st1{clip-path:url(#SVGID_2_);}
</style>
<g>
	<path class="st0" d="M459.1,1302.6c3.6,2.1,6.5,4.8,8.6,8.3s3.1,7.3,3.1,11.5c0,4.1-1,8-3.1,11.5s-4.9,6.3-8.6,8.4
		c-3.6,2.1-7.5,3.1-11.8,3.1c-4.2,0-8.2-1-11.8-3.1c-3.6-2.1-6.5-4.9-8.6-8.4s-3.1-7.4-3.1-11.5s1-8,3.1-11.5s4.9-6.3,8.6-8.3
		c3.6-2.1,7.5-3.1,11.8-3.1C451.5,1299.5,455.4,1300.5,459.1,1302.6z M436.9,1304.9c-3.2,1.8-5.7,4.3-7.6,7.4s-2.8,6.5-2.8,10.1
		c0,3.7,0.9,7.1,2.8,10.2s4.4,5.6,7.6,7.4s6.6,2.8,10.3,2.8c3.7,0,7.2-0.9,10.3-2.8c3.2-1.8,5.7-4.3,7.6-7.4s2.8-6.5,2.8-10.2
		s-0.9-7.1-2.8-10.1c-1.9-3.1-4.4-5.5-7.6-7.4c-3.2-1.8-6.6-2.7-10.3-2.7C443.6,1302.2,440.1,1303.1,436.9,1304.9z"/>
	<path class="st0" d="M524.2,1302.8c3.6,2,6.4,4.8,8.5,8.2c2.1,3.5,3.1,7.3,3.1,11.4s-1,7.9-3.1,11.4s-4.9,6.2-8.5,8.2
		s-7.5,3-11.7,3h-18v-45.3h18C516.7,1299.8,520.6,1300.8,524.2,1302.8z M522.8,1339.8c3.1-1.8,5.6-4.2,7.5-7.3c1.8-3,2.8-6.4,2.8-10
		c0-3.7-0.9-7-2.8-10.1c-1.8-3-4.3-5.5-7.5-7.3c-3.1-1.8-6.6-2.7-10.3-2.7h-15.2v40h15.3C516.2,1342.5,519.6,1341.6,522.8,1339.8z"
		/>
	<path class="st0" d="M589.6,1302.6c3.6,2.1,6.5,4.8,8.6,8.3s3.1,7.3,3.1,11.5c0,4.1-1,8-3.1,11.5s-4.9,6.3-8.6,8.4
		c-3.6,2.1-7.5,3.1-11.8,3.1c-4.2,0-8.2-1-11.8-3.1s-6.5-4.9-8.6-8.4s-3.1-7.4-3.1-11.5s1-8,3.1-11.5s4.9-6.3,8.6-8.3
		c3.6-2.1,7.5-3.1,11.8-3.1C582,1299.5,585.9,1300.5,589.6,1302.6z M567.4,1304.9c-3.2,1.8-5.7,4.3-7.6,7.4
		c-1.9,3.1-2.8,6.5-2.8,10.1c0,3.7,0.9,7.1,2.8,10.2c1.9,3.1,4.4,5.6,7.6,7.4c3.2,1.8,6.6,2.8,10.3,2.8s7.2-0.9,10.3-2.8
		c3.2-1.8,5.7-4.3,7.6-7.4c1.9-3.1,2.8-6.5,2.8-10.2s-0.9-7.1-2.8-10.1c-1.9-3.1-4.4-5.5-7.6-7.4c-3.2-1.8-6.6-2.7-10.3-2.7
		C574.1,1302.2,570.6,1303.1,567.4,1304.9z"/>
	<path class="st0" d="M658.4,1299.8h2.7v45.3h-3.2l-30.2-41.2v41.2H625v-45.3h3.2l30.3,41.3L658.4,1299.8L658.4,1299.8z"/>
	<path class="st0" d="M682.6,1299.8h33.3v2.7h-15.3v42.7h-2.7v-42.7h-15.3V1299.8z"/>
	<path class="st0" d="M764.8,1302.6c3.6,2.1,6.5,4.8,8.6,8.3s3.1,7.3,3.1,11.5c0,4.1-1,8-3.1,11.5s-4.9,6.3-8.6,8.4
		c-3.6,2.1-7.5,3.1-11.8,3.1c-4.2,0-8.2-1-11.8-3.1s-6.5-4.9-8.6-8.4s-3.1-7.4-3.1-11.5s1-8,3.1-11.5s4.9-6.3,8.6-8.3
		c3.6-2.1,7.5-3.1,11.8-3.1C757.2,1299.5,761.2,1300.5,764.8,1302.6z M742.7,1304.9c-3.2,1.8-5.7,4.3-7.6,7.4
		c-1.9,3.1-2.8,6.5-2.8,10.1c0,3.7,0.9,7.1,2.8,10.2c1.9,3.1,4.4,5.6,7.6,7.4c3.2,1.8,6.6,2.8,10.3,2.8s7.2-0.9,10.3-2.8
		c3.2-1.8,5.7-4.3,7.6-7.4c1.9-3.1,2.8-6.5,2.8-10.2s-0.9-7.1-2.8-10.1c-1.9-3.1-4.4-5.5-7.6-7.4c-3.2-1.8-6.6-2.7-10.3-2.7
		C749.3,1302.2,745.8,1303.1,742.7,1304.9z"/>
	<path class="st0" d="M800.2,1299.8h2.7v42.7h20.2v2.7h-22.9V1299.8z"/>
	<path class="st0" d="M876.1,1302.6c3.6,2.1,6.5,4.8,8.6,8.3s3.1,7.3,3.1,11.5c0,4.1-1,8-3.1,11.5s-4.9,6.3-8.6,8.4
		c-3.6,2.1-7.5,3.1-11.8,3.1c-4.2,0-8.2-1-11.8-3.1s-6.5-4.9-8.6-8.4s-3.1-7.4-3.1-11.5s1-8,3.1-11.5s4.9-6.3,8.6-8.3
		c3.6-2.1,7.5-3.1,11.8-3.1S872.5,1300.5,876.1,1302.6z M854,1304.9c-3.2,1.8-5.7,4.3-7.6,7.4c-1.9,3.1-2.8,6.5-2.8,10.1
		c0,3.7,0.9,7.1,2.8,10.2c1.9,3.1,4.4,5.6,7.6,7.4c3.2,1.8,6.6,2.8,10.3,2.8s7.2-0.9,10.3-2.8c3.2-1.8,5.7-4.3,7.6-7.4
		c1.9-3.1,2.8-6.5,2.8-10.2s-0.9-7.1-2.8-10.1c-1.9-3.1-4.4-5.5-7.6-7.4c-3.2-1.8-6.6-2.7-10.3-2.7
		C860.6,1302.2,857.2,1303.1,854,1304.9z"/>
	<path class="st0" d="M943.3,1322.9h2.5v16.5c-2.1,1.9-4.6,3.3-7.4,4.4c-2.8,1.1-5.7,1.6-8.7,1.6c-4.2,0-8.1-1-11.7-3.1
		c-3.6-2.1-6.4-4.9-8.5-8.4s-3.1-7.4-3.1-11.5s1.1-8,3.2-11.5c2.1-3.5,5-6.3,8.6-8.3c3.6-2.1,7.5-3.1,11.8-3.1c3,0,5.8,0.5,8.6,1.6
		c2.7,1.1,5.2,2.5,7.4,4.4l-1.6,2c-1.9-1.7-4.1-3.1-6.5-4c-2.5-1-5.1-1.4-7.8-1.4c-3.8,0-7.2,0.9-10.4,2.8c-3.2,1.8-5.7,4.3-7.6,7.4
		c-1.9,3.1-2.8,6.5-2.8,10.1c0,3.7,0.9,7.1,2.8,10.2c1.9,3.1,4.4,5.6,7.6,7.4c3.2,1.8,6.7,2.8,10.4,2.8c2.5,0,4.9-0.4,7.2-1.2
		c2.3-0.8,4.4-2,6.3-3.5v-15.2H943.3z"/>
	<path class="st0" d="M973.2,1299.8h2.7v45.3h-2.7V1299.8z"/>
	<path class="st0" d="M1038.4,1345.1l-5.9-12.9H1006l-5.8,12.9h-3l20.5-45.3h2.9l20.7,45.3H1038.4z M1007.2,1329.5h24.1l-12.1-26.6
		L1007.2,1329.5z"/>
	<path class="st0" d="M1128.2,1345.1l-5.9-12.9h-26.5l-5.8,12.9h-3l20.5-45.3h2.9l20.7,45.3H1128.2z M1097,1329.5h24.1l-12.1-26.6
		L1097,1329.5z"/>
	<path class="st0" d="M1142.5,1299.8h3l17.2,42.1l17.2-42.1h3l-18.8,45.3h-2.9L1142.5,1299.8z"/>
	<path class="st0" d="M1235.5,1345.1l-5.9-12.9H1203l-5.8,12.9h-3l20.5-45.3h2.9l20.7,45.3H1235.5z M1204.2,1329.5h24.1l-12.1-26.6
		L1204.2,1329.5z"/>
	<path class="st0" d="M1293.1,1299.8h2.7v45.3h-3.2l-30.2-41.2v41.2h-2.7v-45.3h3.2l30.3,41.3v-41.3H1293.1z"/>
	<path class="st0" d="M1346.5,1350.2c0.9,0.9,1.4,2,1.4,3.3c0,1.6-0.6,2.9-1.7,3.9s-2.6,1.6-4.5,1.6c-0.9,0-1.8-0.1-2.7-0.4
		c-1-0.3-1.7-0.6-2.3-1l0.8-2.1c0.5,0.3,1.2,0.6,1.9,0.8c0.8,0.2,1.5,0.3,2.1,0.3c1.3,0,2.3-0.3,3-1s1-1.5,1-2.4
		c0-0.8-0.3-1.5-1-2.1c-0.6-0.6-1.5-0.9-2.7-0.9h-1.9l1.4-5c-4-0.2-7.7-1.4-11.1-3.5c-3.3-2.1-6-4.9-7.9-8.3s-2.9-7.1-2.9-11.1
		c0-4.1,1-8,3.1-11.5s4.9-6.3,8.5-8.4s7.5-3.1,11.7-3.1c3,0,5.8,0.5,8.6,1.6c2.7,1.1,5.2,2.6,7.4,4.5l-1.6,2.1
		c-1.9-1.8-4.1-3.2-6.5-4.1c-2.5-1-5-1.5-7.7-1.5c-3.8,0-7.2,0.9-10.4,2.7c-3.2,1.8-5.7,4.3-7.6,7.4s-2.8,6.5-2.8,10.2
		s0.9,7.1,2.8,10.2s4.4,5.6,7.6,7.4s6.6,2.8,10.4,2.8c2.7,0,5.2-0.5,7.7-1.5c2.4-1,4.6-2.3,6.6-4.1l1.7,1.9c-2,1.9-4.4,3.4-7,4.5
		c-2.7,1.1-5.4,1.7-8.3,1.8l-1,3.3C1344.3,1348.8,1345.6,1349.3,1346.5,1350.2z"/>
	<path class="st0" d="M1416.8,1345.1l-5.9-12.9h-26.5l-5.8,12.9h-3l20.5-45.3h2.9l20.7,45.3H1416.8z M1385.5,1329.5h24.1l-12.1-26.6
		L1385.5,1329.5z"/>
	<path class="st0" d="M1470.7,1302.8c3.6,2,6.4,4.8,8.5,8.2c2.1,3.5,3.1,7.3,3.1,11.4s-1,7.9-3.1,11.4s-4.9,6.2-8.5,8.2
		s-7.5,3-11.7,3h-18v-45.3h18C1463.3,1299.8,1467.2,1300.8,1470.7,1302.8z M1469.3,1339.8c3.1-1.8,5.6-4.2,7.5-7.3
		c1.8-3,2.8-6.4,2.8-10c0-3.7-0.9-7-2.8-10.1c-1.8-3-4.3-5.5-7.5-7.3c-3.1-1.8-6.6-2.7-10.3-2.7h-15.2v40h15.3
		C1462.8,1342.5,1466.2,1341.6,1469.3,1339.8z"/>
	<path class="st0" d="M1539,1345.1l-5.9-12.9h-26.5l-5.8,12.9h-3l20.5-45.3h2.9l20.7,45.3H1539z M1507.7,1329.5h24.1l-12.1-26.6
		L1507.7,1329.5z"/>
</g>
<g>
	<g>
		<defs>
			<path id="SVGID_1_" d="M1222,1221.2c0,5,0,9.8,0,14.8c-7.8,1.7-15.4,0.5-22.8-1.6c-20.3-5.7-37.8-16.7-54.3-29.4
				c-22.3-17.3-42-37.3-61-58.1c-2.3-2.5-2.9-0.9-4,0.9c-9.7,16.2-21.3,30.8-35.3,43.5c-27.8,25.2-60.3,40.6-97.2,47.1
				c-20.9,3.7-42,4.1-63,1.4c-21.4-2.8-41-11-60-20.9c-53-27.9-83.3-72.5-95.1-130.2c-3-14.7-2.1-29.8-1.2-44.8
				c0.1-2.3,0.2-4.7,0.2-7c0-62.2-0.1-124.5,0.1-186.7c0.1-31-9.5-59.2-24.5-85.7c-27.7-49-69.1-80.2-124.2-91.9
				C493.4,654.4,408.1,699,373.4,777c-6.5,14.7-12.8,29.4-15.1,45.4c-1,6.7-1.5,13.5-1.5,20.3c-0.1,66.3-0.1,132.7-0.1,199
				c0,1.6,0,3.2,0,5.1c-6.1,0-11.7,0-17.7,0c0-128.9,0-257.7,0-386.8c5.7,0,11.4,0,17.7,0c0,34.2,0,68.4,0,102.7
				c0.3,0.1,0.6,0.2,0.9,0.3c0.9-1,1.9-1.9,2.6-2.9c7.6-11.1,15.4-22.1,22.8-33.4c12.5-19.1,30-32.7,48.8-44.9
				c27.4-17.8,57.7-27.7,90.2-30.5c57.3-5.1,108.4,10.3,153.1,46.6c20.7,16.8,35.6,38.3,47.8,61.9c8.7,17,16.6,34.4,19.9,53.4
				c1.6,8.8,2.5,17.9,2.5,26.9c0.2,66.9,0.2,133.8,0.1,200.8c0,18.2,0.6,36.3,4.5,54.1c2.9,12.8,7.9,24.9,13.7,36.7
				c22.8,46,60.3,73.9,109.1,87.5c16.7,4.6,34.1,4.8,51.3,4.4c58.7-1.5,102.3-29.8,134.9-77c3-4.4,5.4-9.3,8.2-13.9
				c1.7-3-0.4-4.9-2.1-6.7c-8.6-9.3-17.2-18.5-25.9-27.8c-71.4-76.4-142.8-152.7-214.1-229.1c-11.4-12.2-17.5-27.2-21.8-43.1
				c-11.3-42.2,0.5-78.3,29.2-109.7c11.1-12.2,23.6-22.8,39.5-28.4c13.2-4.7,26.9-6.1,40.7-6.5c11.9-0.4,24.1-1.3,35.5,2.9
				c45.1,16.4,74.2,47,80.9,95.6c4.2,30.5-1.9,59.2-20,84.8c-4.9,7-5,6.9-11.5,1.5c-2.1-1.7-4.1-3.5-6.3-5.3c4-7.4,8.4-14.4,11.9-22
				c4.4-9.6,9.5-19,8.8-30.3c-0.6-9.1-0.2-18.3-0.1-27.4c0.1-6.9-1.2-13.5-4-19.8c-14.1-31.6-38.2-51.1-71.5-59.5
				c-39.7-9.9-81,5.9-102.6,39.5c-24.1,37.6-22.6,81.3,3.1,114.2c7.6,9.7,16.5,18.2,24.9,27.2c69.9,74.5,139.9,149,209.9,223.5
				c1.1,1.2,2.3,2.3,3.8,3.7c0.6-1.2,1.2-2.2,1.7-3.3c24.4-54.2,49.1-108.2,73.2-162.5c24.8-55.9,48.4-112.3,73.5-168.1
				c19.4-43,48.1-78.5,90.4-101.4c29.1-15.7,60.2-24.1,93.5-24c39.7,0.1,77,9.1,111.1,29.7c20.2,12.2,36.8,28.6,51.5,46.9
				c11,13.6,20.7,28.4,30.9,42.6c0.6,0.8,1.1,1.7,2.3,3.5c0-39.7,0-78.3,0-117.3c5.7,0,11.1,0,16.7,0c0,132.4,0,264.8,0,397.5
				c-5.4,0-10.7,0-16.4,0c0-37.6,0-75.1,0-112.6c-0.2-0.1-0.5-0.1-0.7-0.2c-0.6,1-1.3,2.1-1.9,3.1c-19.2,33.7-43.9,62.4-75.9,84.5
				c-26.6,18.4-56,29.4-88.2,32.5c-54.9,5.4-104.7-7.9-149.1-40.7c-28.8-21.3-48.1-49.8-62.1-82.3c-10.3-23.7-15.3-48.6-16.3-74.3
				c-0.1-1.4-0.1-2.7-0.8-4.2c-0.5,1-1,2-1.5,3c-11.8,26.7-23.7,53.5-35.5,80.2c-26.5,59.6-53,119.3-79.5,178.9
				c-1.3,2.9-1.3,4.9,1.1,7.3c14.8,15.1,29.1,30.9,44.3,45.6c23.4,22.6,50.7,38.7,82.5,46.6
				C1220.7,1220.7,1221.2,1220.9,1222,1221.2z M1412.5,1042.7c19.2-0.1,35.3-1.4,50.8-6.5c34.4-11.2,64.1-30,87.6-57.4
				c44.3-51.7,58.5-110.9,39.6-176.6c-13.5-46.7-43.1-81.8-84.4-107c-35.7-21.8-74.6-29.5-115.9-24.2c-24.5,3.2-47.4,11.7-69.1,23.4
				c-30.6,16.4-54.7,39.2-69.9,70.7c-11.4,23.5-19.7,48.1-23.3,74c-3.5,25.5-0.1,50.4,8.2,74.7
				C1261.8,988.9,1331.7,1042.3,1412.5,1042.7z"/>
		</defs>
		<clipPath id="SVGID_2_">
			<use xlink:href="#SVGID_1_"  style="overflow:visible;"/>
		</clipPath>
		<g class="st1">
			
				<image style="overflow:visible;enable-background:new    ;" width="5140" height="2594" xlink:href="CB8B5D40.png"  transform="matrix(0.2752 0 0 0.2462 265.979 626.5634)">
			</image>
		</g>
	</g>
</g>
</svg>
